<svg xmlns="http://www.w3.org/2000/svg" viewBox="0 0 96 64" aria-labelledby="title" role="img">
  <title>AWS</title>
  <rect width="96" height="64" rx="12" fill="none"/>
  <g fill="#FF9900">
    <text x="12" y="32" font-family="Arial, Helvetica, sans-serif" font-size="24" font-weight="800" letter-spacing="-1">AWS</text>
    <path d="M22 43.2c12.5 7.2 28.7 8 43.2 1.4 1.7-.8 3.1 1.3 1.5 2.5-13.7 10.2-34.5 9.3-47.2-1.8-1.3-1.1.1-2.7 1.5-1.5.3.2.7.3 1 .4Z"/>
    <path d="M69.8 41.2c-1.7-2.1-11.2-1-15.5-.5-1.3.2-1.5-1-.3-1.8 7.6-5.3 20.1-3.8 21.5-2 1.4 1.8-.4 14.3-7.5 20.2-1.1 1-2.2.5-1.7-.8 1.7-4.1 5.2-14.1 3.5-16.3Z"/>
  </g>
</svg>
